<svg width="1280" height="225" viewBox="0 0 1280 225" fill="none" xmlns="http://www.w3.org/2000/svg">
<path fill-rule="evenodd" clip-rule="evenodd" d="M0 109.812L36 102.8C71 96.7907 142 83.7694 213 58.7285C284 32.686 356 -5.37612 427 0.633688C498 6.6435 569 58.7285 640 58.7285C711 58.7285 782 6.6435 853 19.6648C924 32.686 996 109.812 1067 122.833C1138 134.853 1209 83.7694 1244 58.7285L1280 32.686V225H1244C1209 225 1138 225 1067 225C996 225 924 225 853 225C782 225 711 225 640 225C569 225 498 225 427 225C356 225 284 225 213 225C142 225 71 225 36 225H0V109.812Z" fill="#F7AC1A"/>
</svg>
