<svg width="1280" height="329" viewBox="0 0 1280 329" fill="none" xmlns="http://www.w3.org/2000/svg">
<g filter="url(#filter0_d_403_1981)">
<path fill-rule="evenodd" clip-rule="evenodd" d="M0 214.298L36 182.298C71 150.298 142 86.2983 213 54.2983C284 22.2983 356 22.2983 427 60.2983C498 99.2983 569 175.298 640 169.298C711 163.298 782 73.2983 853 79.2983C924 86.2983 996 188.298 1067 233.298C1138 278.298 1209 265.298 1244 259.298L1280 252.298V329.298H1244C1209 329.298 1138 329.298 1067 329.298C996 329.298 924 329.298 853 329.298C782 329.298 711 329.298 640 329.298C569 329.298 498 329.298 427 329.298C356 329.298 284 329.298 213 329.298C142 329.298 71 329.298 36 329.298H0V214.298Z" fill="#FF9E2C"/>
<path fill-rule="evenodd" clip-rule="evenodd" d="M0 214.298L36 182.298C71 150.298 142 86.2983 213 54.2983C284 22.2983 356 22.2983 427 60.2983C498 99.2983 569 175.298 640 169.298C711 163.298 782 73.2983 853 79.2983C924 86.2983 996 188.298 1067 233.298C1138 278.298 1209 265.298 1244 259.298L1280 252.298V329.298H1244C1209 329.298 1138 329.298 1067 329.298C996 329.298 924 329.298 853 329.298C782 329.298 711 329.298 640 329.298C569 329.298 498 329.298 427 329.298C356 329.298 284 329.298 213 329.298C142 329.298 71 329.298 36 329.298H0V214.298Z" stroke="black"/>
</g>
<defs>
<filter id="filter0_d_403_1981" x="-35" y="0" width="1350" height="368.298" filterUnits="userSpaceOnUse" color-interpolation-filters="sRGB">
<feFlood flood-opacity="0" result="BackgroundImageFix"/>
<feColorMatrix in="SourceAlpha" type="matrix" values="0 0 0 0 0 0 0 0 0 0 0 0 0 0 0 0 0 0 127 0" result="hardAlpha"/>
<feOffset dy="4"/>
<feGaussianBlur stdDeviation="17.5"/>
<feComposite in2="hardAlpha" operator="out"/>
<feColorMatrix type="matrix" values="0 0 0 0 0 0 0 0 0 0 0 0 0 0 0 0 0 0 0.4 0"/>
<feBlend mode="normal" in2="BackgroundImageFix" result="effect1_dropShadow_403_1981"/>
<feBlend mode="normal" in="SourceGraphic" in2="effect1_dropShadow_403_1981" result="shape"/>
</filter>
</defs>
</svg>
