<svg width="38" height="50" viewBox="0 0 38 50" fill="none" xmlns="http://www.w3.org/2000/svg">
<path d="M37.75 43.75V14.0625L23.6875 0H6.5C4.8424 0 3.25268 0.65848 2.08058 1.83058C0.90848 3.00269 0.25 4.5924 0.25 6.25V43.75C0.25 45.4076 0.90848 46.9973 2.08058 48.1694C3.25268 49.3415 4.8424 50 6.5 50H31.5C33.1576 50 34.7473 49.3415 35.9194 48.1694C37.0915 46.9973 37.75 45.4076 37.75 43.75ZM23.6875 9.375C23.6875 10.6182 24.1814 11.8105 25.0604 12.6896C25.9395 13.5686 27.1318 14.0625 28.375 14.0625H34.625V43.75C34.625 44.5788 34.2958 45.3737 33.7097 45.9597C33.1237 46.5458 32.3288 46.875 31.5 46.875H6.5C5.6712 46.875 4.87634 46.5458 4.29029 45.9597C3.70424 45.3737 3.375 44.5788 3.375 43.75V6.25C3.375 5.4212 3.70424 4.62634 4.29029 4.04029C4.87634 3.45424 5.6712 3.125 6.5 3.125H23.6875V9.375Z" fill="white"/>
<path d="M8.3842 44.0219C7.77511 43.7783 7.28439 43.3078 7.01545 42.7094C6.40607 41.4969 6.6092 40.2844 7.26545 39.2657C7.8842 38.3063 8.9092 37.4907 10.0686 36.8063C11.5371 35.9734 13.0895 35.2978 14.6998 34.7907C15.9504 32.5425 17.0588 30.2182 18.0186 27.8313C17.4448 26.5275 16.9949 25.1725 16.6748 23.7844C16.4061 22.5344 16.3029 21.2969 16.5311 20.2344C16.7654 19.1282 17.3873 18.1344 18.5623 17.6625C19.1623 17.4219 19.8123 17.2875 20.4436 17.4219C20.7611 17.4895 21.0596 17.6269 21.3174 17.8242C21.5753 18.0215 21.7859 18.2737 21.9342 18.5625C22.2092 19.075 22.3092 19.675 22.3311 20.2438C22.3529 20.8313 22.2936 21.4813 22.1842 22.1625C21.9217 23.7563 21.3404 25.7063 20.5592 27.7688C21.4214 29.6126 22.4463 31.3758 23.6217 33.0375C25.0126 32.9277 26.4116 32.9801 27.7904 33.1938C28.9279 33.4 30.0842 33.8032 30.7904 34.6469C31.1654 35.0969 31.3936 35.6469 31.4154 36.2657C31.4373 36.8657 31.2686 37.4594 30.9842 38.025C30.7379 38.5492 30.3559 38.998 29.8779 39.325C29.4055 39.6333 28.8476 39.7842 28.2842 39.7563C27.2498 39.7125 26.2404 39.1438 25.3686 38.4532C24.3084 37.5766 23.3531 36.5804 22.5217 35.4844C20.4084 35.7243 18.3202 36.1488 16.2811 36.7532C15.3473 38.4093 14.2813 39.9873 13.0936 41.4719C12.1811 42.5657 11.1904 43.5219 10.1967 43.9313C9.62573 44.1896 8.97809 44.222 8.3842 44.0219ZM12.6936 38.0813C12.1748 38.3188 11.6936 38.5688 11.2592 38.825C10.2342 39.4313 9.56857 40.0219 9.23732 40.5344C8.94357 40.9875 8.93732 41.3157 9.11232 41.6625C9.14357 41.7313 9.17482 41.775 9.19357 41.8C9.23086 41.7901 9.26741 41.7776 9.30295 41.7625C9.73107 41.5875 10.4123 41.0282 11.2873 39.975C11.785 39.3658 12.2542 38.7339 12.6936 38.0813ZM17.8186 33.925C18.8621 33.6815 19.915 33.4803 20.9748 33.3219C20.4058 32.4512 19.8741 31.5566 19.3811 30.6407C18.8909 31.7488 18.3699 32.8429 17.8186 33.9219V33.925ZM25.4623 35.3313C25.9311 35.8407 26.3873 36.2688 26.8217 36.6125C27.5717 37.2063 28.0936 37.4032 28.378 37.4125C28.4541 37.4225 28.5313 37.406 28.5967 37.3657C28.7267 37.263 28.8279 37.1284 28.8904 36.975C29.0016 36.7847 29.0648 36.5702 29.0748 36.35C29.073 36.2766 29.0441 36.2065 28.9936 36.1532C28.8311 35.9594 28.3686 35.6782 27.3748 35.5C26.7427 35.3943 26.1032 35.3389 25.4623 35.3344V35.3313ZM19.2436 24.375C19.5066 23.5267 19.7153 22.6624 19.8686 21.7875C19.9654 21.2 20.0029 20.7157 19.9873 20.3344C19.9882 20.1241 19.9544 19.915 19.8873 19.7157C19.731 19.735 19.5783 19.7771 19.4342 19.8407C19.1623 19.95 18.9404 20.1719 18.8217 20.725C18.6967 21.325 18.7279 22.1907 18.9654 23.2938C19.0404 23.6407 19.1342 24.0032 19.2467 24.375H19.2436Z" fill="white"/>
</svg>
