<svg width="30" height="30" viewBox="0 0 30 30" fill="none" xmlns="http://www.w3.org/2000/svg">
<g clip-path="url(#clip0_1111_667)">
<path d="M15 28.125C11.519 28.125 8.18064 26.7422 5.71922 24.2808C3.25781 21.8194 1.875 18.481 1.875 15C1.875 11.519 3.25781 8.18064 5.71922 5.71922C8.18064 3.25781 11.519 1.875 15 1.875C18.481 1.875 21.8194 3.25781 24.2808 5.71922C26.7422 8.18064 28.125 11.519 28.125 15C28.125 18.481 26.7422 21.8194 24.2808 24.2808C21.8194 26.7422 18.481 28.125 15 28.125ZM15 30C18.9782 30 22.7936 28.4196 25.6066 25.6066C28.4196 22.7936 30 18.9782 30 15C30 11.0218 28.4196 7.20644 25.6066 4.3934C22.7936 1.58035 18.9782 0 15 0C11.0218 0 7.20644 1.58035 4.3934 4.3934C1.58035 7.20644 0 11.0218 0 15C0 18.9782 1.58035 22.7936 4.3934 25.6066C7.20644 28.4196 11.0218 30 15 30Z" fill="white"/>
<path d="M11.7581 9.47816C11.9115 9.3992 12.0836 9.36407 12.2556 9.37664C12.4277 9.38921 12.5929 9.44899 12.7331 9.54941L19.2956 14.2369C19.4172 14.3236 19.5162 14.4381 19.5846 14.5709C19.6529 14.7036 19.6886 14.8507 19.6886 15C19.6886 15.1493 19.6529 15.2965 19.5846 15.4292C19.5162 15.5619 19.4172 15.6764 19.2956 15.7632L12.7331 20.4507C12.5929 20.551 12.4278 20.6107 12.2559 20.6233C12.0839 20.6359 11.9119 20.6008 11.7586 20.5219C11.6053 20.443 11.4767 20.3234 11.387 20.1762C11.2973 20.029 11.2499 19.8599 11.25 19.6875V10.3125C11.2498 10.1402 11.2972 9.97113 11.3868 9.82393C11.4764 9.67673 11.6049 9.55709 11.7581 9.47816Z" fill="white"/>
</g>
<defs>
<clipPath id="clip0_1111_667">
<rect width="30" height="30" fill="white"/>
</clipPath>
</defs>
</svg>
